<mxfile host="app.diagrams.net" agent="Mozilla/5.0 (Windows NT 10.0; Win64; x64) AppleWebKit/537.36 (KHTML, like Gecko) Chrome/136.0.0.0 Safari/537.36" version="27.0.3">
  <diagram name="Page-1" id="wHmhhaLMYHdC2_dwPvvY">
    <mxGraphModel dx="1042" dy="562" grid="0" gridSize="10" guides="1" tooltips="1" connect="1" arrows="1" fold="1" page="1" pageScale="1" pageWidth="850" pageHeight="1100" math="0" shadow="0">
      <root>
        <mxCell id="0" />
        <mxCell id="1" parent="0" />
        <mxCell id="4Pf_NoGqQz4U8e35FGZp-1" value="&lt;h1&gt;Ethernet Header&lt;/h1&gt;&lt;div&gt;&lt;font style=&quot;font-size: 19px;&quot;&gt;Src: 0a:00:27:00:00:0b&lt;/font&gt;&lt;/div&gt;&lt;div&gt;&lt;font style=&quot;font-size: 19px;&quot;&gt;&amp;nbsp;Dst:&amp;nbsp; (08:00:27:5e:f4:7d)&lt;/font&gt;&lt;/div&gt;" style="rounded=0;whiteSpace=wrap;html=1;" vertex="1" parent="1">
          <mxGeometry x="320" y="70" width="230" height="100" as="geometry" />
        </mxCell>
        <mxCell id="4Pf_NoGqQz4U8e35FGZp-2" value="&lt;h1&gt;TCP Header&lt;/h1&gt;&lt;div&gt;&lt;font style=&quot;font-size: 19px;&quot;&gt;Src port: 6250&lt;/font&gt;&lt;/div&gt;&lt;div&gt;&lt;font style=&quot;font-size: 19px;&quot;&gt;Dst port: 80&lt;/font&gt;&lt;/div&gt;" style="rounded=0;whiteSpace=wrap;html=1;" vertex="1" parent="1">
          <mxGeometry x="320" y="310" width="230" height="100" as="geometry" />
        </mxCell>
        <mxCell id="4Pf_NoGqQz4U8e35FGZp-3" value="&lt;h1&gt;IP Header&lt;/h1&gt;&lt;div&gt;&lt;font style=&quot;font-size: 19px;&quot;&gt;&amp;nbsp;Src: 192.168.56.1&lt;/font&gt;&lt;/div&gt;&lt;div&gt;&lt;font style=&quot;font-size: 19px;&quot;&gt;Dst: 192.168.56.2&lt;/font&gt;&lt;/div&gt;" style="rounded=0;whiteSpace=wrap;html=1;" vertex="1" parent="1">
          <mxGeometry x="320" y="190" width="230" height="100" as="geometry" />
        </mxCell>
        <mxCell id="4Pf_NoGqQz4U8e35FGZp-4" value="&lt;h3 style=&quot;text-align: left;&quot;&gt;GET /12300016.html HTTP/1.1&lt;/h3&gt;&lt;h3&gt;Host:192.168.56.2&lt;/h3&gt;&lt;div&gt;&lt;br&gt;&lt;/div&gt;" style="rounded=0;whiteSpace=wrap;html=1;" vertex="1" parent="1">
          <mxGeometry x="320" y="430" width="230" height="100" as="geometry" />
        </mxCell>
        <mxCell id="4Pf_NoGqQz4U8e35FGZp-5" value="&lt;h1&gt;471 Bytes&lt;/h1&gt;" style="text;strokeColor=none;align=center;fillColor=none;html=1;verticalAlign=middle;whiteSpace=wrap;rounded=0;" vertex="1" parent="1">
          <mxGeometry x="130" y="460" width="190" height="40" as="geometry" />
        </mxCell>
        <mxCell id="4Pf_NoGqQz4U8e35FGZp-6" value="&lt;h1&gt;20 Bytes&lt;/h1&gt;" style="text;strokeColor=none;align=center;fillColor=none;html=1;verticalAlign=middle;whiteSpace=wrap;rounded=0;" vertex="1" parent="1">
          <mxGeometry x="130" y="340" width="190" height="40" as="geometry" />
        </mxCell>
        <mxCell id="4Pf_NoGqQz4U8e35FGZp-7" value="&lt;h1&gt;20 Bytes&lt;/h1&gt;" style="text;strokeColor=none;align=center;fillColor=none;html=1;verticalAlign=middle;whiteSpace=wrap;rounded=0;" vertex="1" parent="1">
          <mxGeometry x="130" y="220" width="190" height="40" as="geometry" />
        </mxCell>
        <mxCell id="4Pf_NoGqQz4U8e35FGZp-8" value="&lt;h1&gt;14 Bytes&lt;/h1&gt;" style="text;strokeColor=none;align=center;fillColor=none;html=1;verticalAlign=middle;whiteSpace=wrap;rounded=0;" vertex="1" parent="1">
          <mxGeometry x="130" y="100" width="190" height="40" as="geometry" />
        </mxCell>
        <mxCell id="4Pf_NoGqQz4U8e35FGZp-9" value="&lt;h1&gt;525 Bytes&lt;/h1&gt;" style="text;strokeColor=none;align=center;fillColor=none;html=1;verticalAlign=middle;whiteSpace=wrap;rounded=0;" vertex="1" parent="1">
          <mxGeometry x="340" y="20" width="190" height="40" as="geometry" />
        </mxCell>
      </root>
    </mxGraphModel>
  </diagram>
</mxfile>
